HIERARCHY
ROOT Hips
{
	OFFSET 0.00000 0.00000 0.00000
	CHANNELS 6 Xposition Yposition Zposition Zrotation Yrotation Xrotation 
	JOINT LHipJoint
	{
		OFFSET 0 0 0
		CHANNELS 3 Zrotation Yrotation Xrotation
		JOINT LeftUpLeg
		{
			OFFSET 2.36090 -1.39315 1.24752
			CHANNELS 3 Zrotation Yrotation Xrotation
			JOINT LeftLeg
			{
				OFFSET 2.06810 -5.68207 0.00000
				CHANNELS 3 Zrotation Yrotation Xrotation
				JOINT LeftFoot
				{
					OFFSET 2.46631 -6.77613 0.00000
					CHANNELS 3 Zrotation Yrotation Xrotation
					JOINT LeftToeBase
					{
						OFFSET 0.26031 -0.71520 1.99545
						CHANNELS 3 Zrotation Yrotation Xrotation
						End Site
						{
							OFFSET 0.00000 -0.00000 1.05957
						}
					}
				}
			}
		}
	}
	JOINT RHipJoint
	{
		OFFSET 0 0 0
		CHANNELS 3 Zrotation Yrotation Xrotation
		JOINT RightUpLeg
		{
			OFFSET -2.25243 -1.39315 1.24752
			CHANNELS 3 Zrotation Yrotation Xrotation
			JOINT RightLeg
			{
				OFFSET -2.17343 -5.97145 0.00000
				CHANNELS 3 Zrotation Yrotation Xrotation
				JOINT RightFoot
				{
					OFFSET -2.52372 -6.93386 0.00000
					CHANNELS 3 Zrotation Yrotation Xrotation
					JOINT RightToeBase
					{
						OFFSET -0.22538 -0.61923 2.11447
						CHANNELS 3 Zrotation Yrotation Xrotation
						End Site
						{
							OFFSET -0.00000 -0.00000 1.10506
						}
					}
				}
			}
		}
	}
	JOINT LowerBack
	{
		OFFSET 0 0 0
		CHANNELS 3 Zrotation Yrotation Xrotation
		JOINT Spine
		{
			OFFSET 0.01594 2.13103 0.08007
			CHANNELS 3 Zrotation Yrotation Xrotation
			JOINT Spine1
			{
				OFFSET 0.01393 2.09723 0.18338
				CHANNELS 3 Zrotation Yrotation Xrotation
				JOINT Neck
				{
					OFFSET 0 0 0
					CHANNELS 3 Zrotation Yrotation Xrotation
					JOINT Neck1
					{
						OFFSET 0.05351 1.38915 0.32494
						CHANNELS 3 Zrotation Yrotation Xrotation
						JOINT Head
						{
							OFFSET 0.00711 1.45992 -0.21666
							CHANNELS 3 Zrotation Yrotation Xrotation
							End Site
							{
								OFFSET -0.00433 1.47702 -0.11056
							}
						}
					}
				}
				JOINT LeftShoulder
				{
					OFFSET 0 0 0
					CHANNELS 3 Zrotation Yrotation Xrotation
					JOINT LeftArm
					{
						OFFSET 2.87198 0.92249 0.11132
						CHANNELS 3 Zrotation Yrotation Xrotation
						JOINT LeftForeArm
						{
							OFFSET 5.52731 -0.00000 0.00000
							CHANNELS 3 Zrotation Yrotation Xrotation
							JOINT LeftHand
							{
								OFFSET 3.11059 -0.00000 0.00000
								CHANNELS 3 Zrotation Yrotation Xrotation
								JOINT LeftFingerBase
								{
									OFFSET 0 0 0
									CHANNELS 3 Zrotation Yrotation Xrotation
									JOINT LeftHandIndex1
									{
										OFFSET 0.41963 -0.00000 0.00000
										CHANNELS 3 Zrotation Yrotation Xrotation
										End Site
										{
											OFFSET 0.33831 -0.00000 0.00000
										}
									}
								}
								JOINT LThumb
								{
									OFFSET 0 0 0
									CHANNELS 3 Zrotation Yrotation Xrotation
									End Site
									{
										OFFSET 0.34348 -0.00000 0.34348
									}
								}
							}
						}
					}
				}
				JOINT RightShoulder
				{
					OFFSET 0 0 0
					CHANNELS 3 Zrotation Yrotation Xrotation
					JOINT RightArm
					{
						OFFSET -2.94710 0.68072 0.32187
						CHANNELS 3 Zrotation Yrotation Xrotation
						JOINT RightForeArm
						{
							OFFSET -5.25396 -0.00000 -0.00000
							CHANNELS 3 Zrotation Yrotation Xrotation
							JOINT RightHand
							{
								OFFSET -3.10567 -0.00000 0.00000
								CHANNELS 3 Zrotation Yrotation Xrotation
								JOINT RightFingerBase
								{
									OFFSET 0 0 0
									CHANNELS 3 Zrotation Yrotation Xrotation
									JOINT RightHandIndex1
									{
										OFFSET -0.49868 -0.00000 0.00000
										CHANNELS 3 Zrotation Yrotation Xrotation
										End Site
										{
											OFFSET -0.40204 -0.00000 0.00000
										}
									}
								}
								JOINT RThumb
								{
									OFFSET 0 0 0
									CHANNELS 3 Zrotation Yrotation Xrotation
									End Site
									{
										OFFSET -0.40818 -0.00000 0.40818
									}
								}
							}
						}
					}
				}
			}
		}
	}
}
MOTION
Frames: 9
Frame Time: .0083333
10.5138 15.1124 39.1338 0 0 0 0 0 0 -21 0 0 0 0 0 0 0 0 0 0 0 0 0 0 21 0 0 0 0 0 0 0 0 0 0 0 0 0 0 0 0 0 0 0 0 0 0 -16 0 0 21 0 0 11 0 0 0 -8 0 0 0 0 0 0 0 0 0 0 0 0 0 0 0 0 0 0 0 0 8 0 0 0 0 0 0 0 0 0 0 0 0 0 0 0 0 0
10.5138 15.1124 39.1338 -174.2690 -26.7424 -164.7660 0.0000 0.0000 0.0000 -1.2323 -25.9550 -41.7476 4.6245 12.9480 39.1741 -0.3179 12.4063 -12.4879 4.6667 -12.9983 -39.3623 0.0000 0.0000 0.0000 26.1278 25.5084 -26.5900 -3.1144 -10.8780 31.8696 -0.9378 1.3899 -17.8871 -0.0061 -0.5052 1.3883 13.6673 1.2104 -14.0173 4.8208 -1.3572 -4.9002 -2.7757 -1.1145 2.4859 18.4220 16.7693 -10.1571 -12.3036 22.8417 23.0112 -3.6793 10.5116 12.9962 -0.0000 -0.0000 0.0000 -76.7412 6.9783 63.3283 20.9157 -31.7298 -6.0055 -0.0000 0.0000 -44.0593 28.9043 0.3216 0.1776 -7.1250 0.0000 -0.0000 1.8506 30.3443 -0.6625 -0.0000 -0.0000 0.0000 77.9569 -7.4828 13.4475 -14.2265 23.0575 -2.9162 0.0000 -0.0000 -2.0606 -17.7104 -19.6056 6.1161 7.1250 -0.0000 -0.0000 10.5793 -50.1832 -1.3650
10.4740 15.1234 39.1123 -174.1840 -26.2822 -164.6030 0.0000 0.0000 0.0000 -0.5254 -26.4088 -41.6188 4.3415 12.6015 37.8945 -0.2092 11.2889 -12.5324 4.7548 -13.1022 -39.7524 0.0000 0.0000 0.0000 26.1323 25.2573 -26.5585 -3.0527 -10.7799 31.5411 -0.9493 2.1217 -17.8214 -0.0084 -0.5922 1.6274 13.5563 1.0970 -14.1460 4.9747 -1.5417 -4.7534 -2.5850 -1.1872 2.6973 18.2686 16.8521 -10.2759 -12.4550 23.0106 22.9164 -3.6665 10.5518 13.0127 -0.0000 0.0000 0.0000 -77.0477 6.7845 62.9887 20.9485 -31.7682 -6.0228 -0.0000 0.0000 -43.9588 28.9730 0.4603 0.2549 -7.1250 0.0000 -0.0000 1.9077 30.5030 -0.6757 -0.0000 0.0000 0.0000 77.5710 -7.3244 13.1390 -14.0013 22.7366 -2.8286 0.0000 -0.0000 -1.7758 -17.6804 -19.2046 5.9859 7.1250 -0.0000 -0.0000 10.4733 -49.7719 -1.2443
10.4356 15.1340 39.0915 -174.1110 -25.8724 -164.4350 0.0000 0.0000 0.0000 0.2376 -26.9681 -41.5009 4.0767 12.2618 36.6644 -0.1051 10.1494 -12.6050 4.7788 -13.1303 -39.8583 0.0000 0.0000 0.0000 26.1426 24.9094 -26.5645 -2.9939 -10.6852 31.2253 -0.9584 2.7785 -17.7758 -0.0115 -0.6932 1.9049 13.5454 1.0396 -14.0467 4.9613 -1.5952 -4.8159 -2.5991 -1.2259 2.5686 18.3165 16.8497 -10.2827 -12.3995 22.9821 23.0181 -3.6585 10.5434 13.0489 0.0000 0.0000 0.0000 -77.0603 6.8364 62.9651 20.9714 -31.7949 -6.0348 -0.0000 0.0000 -43.9889 28.8981 0.3815 0.2106 -7.1250 0.0000 -0.0000 1.8468 30.4127 -0.6581 0.0000 0.0000 0.0000 77.4540 -7.5682 12.8219 -13.8013 22.4500 -2.7518 0.0000 -0.0000 -1.5542 -18.0215 -19.1317 6.0862 7.1250 -0.0000 -0.0000 10.1214 -49.7509 -1.1964
10.3958 15.1426 39.0674 -173.9730 -25.4257 -164.2620 0.0000 0.0000 0.0000 0.9333 -27.3517 -41.3662 3.8221 11.9198 35.4489 -0.0185 8.9817 -12.4550 4.8069 -13.1630 -39.9819 0.0000 0.0000 0.0000 26.2155 24.5609 -26.5992 -2.9374 -10.5930 30.9192 -0.9768 3.4512 -17.8397 -0.0072 -0.5485 1.5073 13.5438 1.0387 -14.1295 4.9334 -1.6142 -4.8066 -2.6325 -1.2332 2.6203 18.3484 16.7241 -10.2427 -12.3494 22.7695 23.0105 -3.6985 10.4611 12.9972 -0.0000 0.0000 0.0000 -77.0516 6.7786 62.9232 20.9856 -31.8116 -6.0424 -0.0000 0.0000 -44.0195 28.6751 0.3164 0.1731 -7.1250 0.0000 -0.0000 1.6692 30.3382 -0.5977 -0.0000 0.0000 0.0000 77.4481 -7.7269 12.2848 -13.6350 22.2105 -2.6886 0.0000 -0.0000 -1.1700 -18.1368 -19.4349 6.2202 7.1250 -0.0000 -0.0000 10.1102 -50.0776 -1.2769
10.3559 15.1496 39.0440 -173.8540 -24.9903 -164.0910 0.0000 0.0000 0.0000 1.6530 -27.7900 -41.2218 3.5817 11.5819 34.2684 0.0554 7.9123 -12.3644 4.8610 -13.2256 -40.2188 0.0000 0.0000 0.0000 26.2802 24.1187 -26.6765 -2.8869 -10.5096 30.6434 -0.9928 4.2676 -17.8868 -0.0059 -0.4973 1.3665 13.5009 0.9986 -14.1787 4.9542 -1.6773 -4.7970 -2.5983 -1.2641 2.6513 18.2688 16.6959 -10.4236 -12.2528 22.6961 23.1665 -3.6569 10.4168 13.0576 -0.0000 0.0000 0.0000 -77.1280 6.7224 62.8168 20.9955 -31.8230 -6.0475 -0.0000 0.0000 -44.0420 28.5100 0.2538 0.1379 -7.1250 0.0000 -0.0000 1.5376 30.2667 -0.5532 -0.0000 0.0000 0.0000 77.3123 -7.8428 11.8691 -13.4481 21.9402 -2.6183 0.0000 -0.0000 -0.8597 -18.3073 -19.5466 6.3168 7.1250 -0.0000 -0.0000 9.9824 -50.2185 -1.2953
10.3159 15.1553 39.0199 -173.7250 -24.5599 -163.9210 0.0000 0.0000 0.0000 2.3432 -28.1850 -41.0905 3.3643 11.2627 33.1711 0.1167 6.8842 -12.2245 4.9139 -13.2862 -40.4495 0.0000 0.0000 0.0000 26.3635 23.6186 -26.7856 -2.8403 -10.4319 30.3871 -1.0089 5.1413 -17.9615 -0.0045 -0.4330 1.1899 13.4526 0.9640 -14.2299 4.9681 -1.7317 -4.8017 -2.5669 -1.2924 2.6693 18.1578 16.6507 -10.6646 -12.1007 22.5845 23.3917 -3.5956 10.3536 13.1388 -0.0000 0.0000 0.0000 -77.1943 6.6749 62.7211 20.9957 -31.8233 -6.0477 -0.0000 0.0000 -44.0837 28.3339 0.1937 0.1044 -7.1250 0.0000 -0.0000 1.3974 30.1983 -0.5050 -0.0000 0.0000 0.0000 77.1919 -7.9828 11.4582 -13.2715 21.6838 -2.5527 0.0000 -0.0000 -0.5631 -18.4865 -19.6972 6.4294 7.1250 -0.0000 -0.0000 9.8591 -50.4008 -1.3235
10.2755 15.1598 38.9949 -173.5870 -24.1262 -163.7540 0.0000 0.0000 0.0000 2.9742 -28.5098 -40.9513 3.1668 10.9602 32.1459 0.1642 5.9145 -12.0191 4.9654 -13.3447 -40.6731 0.0000 0.0000 0.0000 26.4640 23.0628 -26.9259 -2.8001 -10.3642 30.1644 -1.0240 6.0777 -18.0621 -0.0029 -0.3496 0.9605 13.3963 0.9366 -14.3021 4.9753 -1.7788 -4.8013 -2.5377 -1.3156 2.7052 18.0144 16.5841 -10.9566 -11.9086 22.4316 23.6547 -3.5214 10.2705 13.2286 0.0000 0.0000 0.0000 -77.2527 6.6108 62.6290 20.9880 -31.8143 -6.0436 -0.0000 0.0000 -44.1409 28.1778 0.1634 0.0876 -7.1250 0.0000 -0.0000 1.2737 30.1639 -0.4613 0.0000 0.0000 0.0000 77.0867 -8.1219 11.0485 -13.1065 21.4430 -2.4921 0.0000 -0.0000 -0.2930 -18.6480 -19.8752 6.5450 7.1250 -0.0000 -0.0000 9.7618 -50.6084 -1.3604
10.2349 15.1633 38.9691 -173.4430 -23.6932 -163.5910 0.0000 0.0000 0.0000 3.5320 -28.7505 -40.8235 2.9945 10.6861 31.2284 0.1993 5.0025 -11.7547 5.0124 -13.3978 -40.8764 0.0000 0.0000 0.0000 26.5791 22.4626 -27.0864 -2.7638 -10.3025 29.9621 -1.0366 7.0564 -18.1785 -0.0015 -0.2502 0.6875 13.3267 0.9111 -14.3865 4.9798 -1.8235 -4.8007 -2.5042 -1.3370 2.7489 17.8335 16.4992 -11.2985 -11.6760 22.2432 23.9599 -3.4320 10.1695 13.3295 0.0000 -0.0000 0.0000 -77.3111 6.5378 62.5353 20.9743 -31.7984 -6.0364 -0.0000 0.0000 -44.2102 28.0574 0.1723 0.0918 -7.1250 0.0000 -0.0000 1.1788 30.1739 -0.4267 0.0000 -0.0000 0.0000 76.9873 -8.2658 10.6668 -12.9569 21.2240 -2.4377 0.0000 -0.0000 -0.0673 -18.8102 -20.0220 6.6520 7.1250 -0.0000 -0.0000 9.6532 -50.7849 -1.3871
